<?xml version="1.0" encoding="UTF-8"?>
<!DOCTYPE svg PUBLIC "-//W3C//DTD SVG 1.1//EN" "http://www.w3.org/Graphics/SVG/1.1/DTD/svg11.dtd">
<!-- Creator: CorelDRAW X7 -->
<svg xmlns="http://www.w3.org/2000/svg" xml:space="preserve" width="172.78mm" height="172.882mm" version="1.1" style="shape-rendering:geometricPrecision; text-rendering:geometricPrecision; image-rendering:optimizeQuality; fill-rule:evenodd; clip-rule:evenodd"
viewBox="0 0 4286 4288"
 xmlns:xlink="http://www.w3.org/1999/xlink">
 <defs>
  <style type="text/css">
   <![CDATA[
    .str0 {stroke:#2B2A29;stroke-width:4.96089}
    .str1 {stroke:white;stroke-width:4.96089}
    .fil1 {fill:none}
    .fil2 {fill:#2B2A29}
    .fil0 {fill:#2B2A29;fill-rule:nonzero}
   ]]>
  </style>
 </defs>
 <g id="Layer_x0020_1">
  <metadata id="CorelCorpID_0Corel-Layer"/>
  <path class="fil0" d="M2164 3831c-468,0 -891,-192 -1197,-501 -306,-309 -495,-736 -495,-1208 0,-472 189,-899 495,-1208 306,-309 729,-500 1197,-500 467,0 890,191 1196,500 306,309 495,736 495,1208 0,472 -189,899 -495,1208 -306,309 -729,501 -1196,501zm-1179 -518c302,304 718,493 1179,493 460,0 877,-189 1178,-493 302,-305 489,-726 489,-1191 0,-465 -187,-886 -489,-1190 -301,-305 -718,-493 -1178,-493 -461,0 -877,188 -1179,493 -302,304 -488,725 -488,1190 0,465 186,886 488,1191zm1179 -2950c-481,0 -917,197 -1232,515 -315,319 -510,758 -510,1244 0,486 195,926 510,1244 315,318 751,515 1232,515 481,0 916,-197 1231,-515 315,-318 510,-758 510,-1244 0,-486 -195,-925 -510,-1244 -315,-318 -750,-515 -1231,-515zm-1249 498c319,-323 761,-522 1249,-522 487,0 929,199 1249,522 319,323 517,769 517,1261 0,493 -198,938 -517,1261 -320,323 -762,523 -1249,523 -488,0 -930,-200 -1249,-523 -320,-323 -518,-768 -518,-1261 0,-492 198,-938 518,-1261z"/>
  <polygon class="fil1 str0" points="1504,910 2245,2109 1522,3307 2231,3307 2985,2104 2249,910 "/>
  <path class="fil2" d="M409 2122c0,-969 786,-1754 1755,-1754 968,0 1754,785 1754,1754 0,969 -786,1754 -1754,1754 -969,0 -1755,-785 -1755,-1754zm-355 0c0,1165 944,2110 2110,2110 557,0 1064,-216 1441,-570 411,-385 668,-932 668,-1540 0,-1165 -944,-2110 -2109,-2110 -581,0 -1106,235 -1488,614 -384,382 -622,911 -622,1496z"/>
  <polygon class="fil2 str1" points="1504,910 2245,2109 1522,3307 2231,3307 2985,2104 2249,910 "/>
  <path class="fil0" d="M1271 3647c-266,-156 -488,-380 -641,-648 -148,-258 -233,-558 -233,-877 0,-319 85,-619 233,-877 153,-268 375,-492 641,-648 133,-78 277,-139 430,-180 147,-40 302,-62 463,-62 160,0 315,22 463,62 152,41 296,102 429,180 267,156 488,380 642,648 148,258 232,558 232,877 0,319 -84,619 -232,877 -154,268 -375,492 -642,648 -133,78 -277,139 -429,181 -148,40 -303,61 -463,61 -161,0 -316,-21 -463,-61 -153,-42 -297,-103 -430,-181zm-620 -660c152,264 370,485 632,639 131,77 274,137 424,178 145,39 299,60 457,60 158,0 311,-21 456,-60 151,-41 293,-101 424,-178 262,-154 481,-375 632,-639 146,-255 230,-550 230,-865 0,-315 -84,-610 -230,-865 -151,-264 -370,-484 -632,-638 -131,-77 -273,-138 -424,-178 -145,-40 -298,-61 -456,-61 -158,0 -312,21 -457,61 -150,40 -293,101 -424,178 -262,154 -480,374 -632,638 -146,255 -229,550 -229,865 0,315 83,610 229,865zm-35 -2281c-186,193 -336,421 -439,673 -98,243 -152,509 -152,787 0,579 235,1104 614,1483 380,380 904,614 1483,614 275,0 538,-52 778,-149 85,-34 376,-137 748,-510 379,-380 613,-903 613,-1482 0,-579 -235,-1103 -614,-1483 -380,-379 -904,-614 -1483,-614 -301,0 -586,63 -845,177 -268,118 -507,291 -702,504l0 0 -1 0 0 0zm-462 664c104,-255 256,-486 444,-681l0 0 0 0 0 0c198,-216 440,-391 711,-510 262,-115 551,-179 855,-179 586,0 1116,238 1500,622 384,384 622,914 622,1500 0,585 -237,1115 -620,1499 -17,16 -33,32 -50,48l2 2c-195,194 -428,351 -687,458 -249,103 -523,159 -809,159 -586,0 -1116,-237 -1500,-621 -384,-384 -622,-915 -622,-1501 0,-281 55,-550 154,-796z"/>
 </g>
</svg>
